<?xml version="1.0" encoding="UTF-8" standalone="no"?>
<!-- Created with Inkscape (http://www.inkscape.org/) -->

<svg
   width="126.84479mm"
   height="144.47221mm"
   viewBox="0 0 126.84479 144.47221"
   version="1.1"
   id="svg5"
   xml:space="preserve"
   xmlns:inkscape="http://www.inkscape.org/namespaces/inkscape"
   xmlns:sodipodi="http://sodipodi.sourceforge.net/DTD/sodipodi-0.dtd"
   xmlns="http://www.w3.org/2000/svg"
   xmlns:svg="http://www.w3.org/2000/svg"><sodipodi:namedview
     id="namedview7"
     pagecolor="#ffffff"
     bordercolor="#666666"
     borderopacity="1.0"
     inkscape:showpageshadow="2"
     inkscape:pageopacity="0.0"
     inkscape:pagecheckerboard="0"
     inkscape:deskcolor="#d1d1d1"
     inkscape:document-units="mm"
     showgrid="false" /><defs
     id="defs2" /><g
     inkscape:label="Layer 1"
     inkscape:groupmode="layer"
     id="layer1"
     transform="translate(-37.247086,-109.72245)"><path
       style="fill:#f85200;fill-opacity:1;stroke-width:0.282222"
       d="m 63.713548,253.91805 c -2.030256,-0.39872 -4.732262,-1.8297 -6.357826,-3.36709 -1.586017,-1.49999 -3.316161,-4.56079 -3.667207,-6.48766 -0.09898,-0.54328 -1.888773,-21.61225 -3.977326,-46.81994 -2.088553,-25.2077 -3.831558,-45.85022 -3.873346,-45.87226 -0.04179,-0.0221 -0.76985,-0.35258 -1.617915,-0.7345 -2.032612,-0.91538 -4.511261,-3.3681 -5.616674,-5.55791 -3.780571,-7.48927 0.705903,-16.56598 8.962243,-18.13177 0.869733,-0.16494 6.206936,-0.28806 12.48711,-0.28806 h 10.968145 v -2.50148 c 0,-1.37581 0.129631,-3.18501 0.288067,-4.02044 0.961235,-5.06859 5.054758,-9.16211 10.123342,-10.12335 2.046929,-0.38819 36.396919,-0.38819 38.443849,0 5.06858,0.96124 9.1621,5.05476 10.12334,10.12335 0.15844,0.83543 0.28807,2.64463 0.28807,4.02044 v 2.50148 h 10.96814 c 6.28018,0 11.61738,0.12312 12.48711,0.28806 6.68891,1.26853 11.31212,7.8294 10.17791,14.44363 -0.66813,3.89622 -3.51861,7.75372 -6.83234,9.24605 -0.84806,0.38192 -1.57613,0.71245 -1.61791,0.7345 -0.0418,0.022 -1.7848,20.66456 -3.87335,45.87226 -2.08855,25.20769 -3.87835,46.27666 -3.97733,46.81994 -0.099,0.54328 -0.62153,1.90081 -1.16125,3.01674 -1.68604,3.48613 -5.16593,6.11203 -9.08462,6.85519 -1.88099,0.35673 -71.839413,0.3404 -73.660232,-0.0172 z m 73.820442,-8.89647 c 1.84721,-1.37701 1.521,1.39072 5.45945,-46.32041 1.99589,-24.17866 3.69405,-44.56445 3.77369,-45.30176 l 0.1448,-1.34055 H 100.64619 54.38044 l 0.145647,1.19944 c 0.08011,0.6597 1.724889,20.43995 3.655073,43.95611 1.930183,23.51617 3.585049,43.41701 3.677483,44.22409 0.202968,1.77227 1.070234,3.15791 2.394401,3.82556 0.92325,0.46552 3.126198,0.4909 36.733166,0.42334 l 35.75102,-0.0719 z m -59.91961,-8.30996 c -2.399295,-1.18765 -2.092573,1.38803 -4.492596,-37.72605 l -2.13388,-34.77661 0.568692,-1.28562 c 0.447492,-1.01163 0.826909,-1.40281 1.780312,-1.83552 1.560861,-0.7084 2.301338,-0.69992 3.837993,0.044 2.283892,1.10561 2.008733,-1.24041 4.424121,37.72061 l 2.157369,34.79908 -0.599229,1.23784 c -0.44047,0.90989 -0.917425,1.39188 -1.800256,1.81925 -1.508618,0.73031 -2.272072,0.73093 -3.742526,0.003 z m 21.149035,-0.009 c -0.846246,-0.41889 -1.350605,-0.92849 -1.763888,-1.78221 -0.573964,-1.18566 -0.578776,-1.48504 -0.578776,-36.01294 0,-34.57917 0.004,-34.82557 0.581409,-36.01838 0.614014,-1.26838 2.306404,-2.36385 3.65192,-2.36385 1.34552,0 3.03792,1.09547 3.65193,2.36385 0.57743,1.19281 0.58141,1.43921 0.58141,36.01838 0,34.57916 -0.004,34.82556 -0.58141,36.01837 -0.42212,0.87199 -0.91045,1.36032 -1.78244,1.78244 -1.51249,0.73218 -2.27185,0.73104 -3.760155,-0.006 z m 21.140155,0.0248 c -0.9534,-0.43271 -1.33282,-0.82389 -1.78031,-1.83552 l -0.56869,-1.28562 2.15597,-34.77661 c 2.41753,-38.99552 2.14932,-36.70866 4.42637,-37.7421 1.52411,-0.69173 2.31023,-0.69173 3.83435,0 0.9534,0.4327 1.33282,0.82389 1.78031,1.83552 l 0.56869,1.28562 -2.15597,34.77661 c -2.41752,38.99551 -2.14932,36.70865 -4.42636,37.7421 -0.66639,0.30244 -1.52912,0.5499 -1.91718,0.5499 -0.38806,0 -1.25079,-0.24746 -1.91718,-0.5499 z m 33.41842,-93.59362 c 1.4997,-0.71165 2.22431,-1.9415 2.22431,-3.7752 0,-1.83371 -0.72461,-3.06355 -2.22431,-3.77521 -0.87983,-0.41751 -5.54958,-0.45812 -52.66791,-0.45812 -57.259045,0 -52.876128,-0.14529 -54.262773,1.79868 -0.876748,1.22913 -0.878442,3.6378 -0.0034,4.86449 1.38164,1.93693 -3.05334,1.78995 54.223543,1.79707 47.16604,0.006 51.83056,-0.0341 52.71056,-0.45171 z m -31.54611,-19.36772 c -0.0814,-2.44584 -0.19349,-3.02911 -0.72568,-3.7752 -1.32333,-1.85521 -0.68244,-1.79869 -20.39612,-1.79869 -19.713674,0 -19.072779,-0.0565 -20.396107,1.79869 -0.532195,0.74609 -0.644314,1.32936 -0.725687,3.7752 l -0.09625,2.89278 h 21.218044 21.21805 z"
       id="path302" /></g></svg>
