<?xml version="1.0" encoding="UTF-8" standalone="no"?>
<!-- Created with Inkscape (http://www.inkscape.org/) -->

<svg
   width="33.765587mm"
   height="135.39046mm"
   viewBox="0 0 33.765586 135.39046"
   version="1.1"
   id="svg5"
   xml:space="preserve"
   sodipodi:docname="menu.svg"
   xmlns:inkscape="http://www.inkscape.org/namespaces/inkscape"
   xmlns:sodipodi="http://sodipodi.sourceforge.net/DTD/sodipodi-0.dtd"
   xmlns="http://www.w3.org/2000/svg"
   xmlns:svg="http://www.w3.org/2000/svg"><sodipodi:namedview
     id="namedview7"
     pagecolor="#ffffff"
     bordercolor="#666666"
     borderopacity="1.0"
     inkscape:showpageshadow="2"
     inkscape:pageopacity="0.0"
     inkscape:pagecheckerboard="0"
     inkscape:deskcolor="#d1d1d1"
     inkscape:document-units="mm"
     showgrid="false" /><defs
     id="defs2" /><g
     inkscape:label="Layer 1"
     inkscape:groupmode="layer"
     id="layer1"
     transform="translate(-133.71712,-76.839662)"><path
       style="fill:#3c3c3c;fill-opacity:1;stroke-width:0.264583"
       d="m 147.07299,211.8536 c -5.06197,-1.08598 -9.29189,-4.36967 -11.54473,-8.96217 -1.7569,-3.58149 -2.22413,-7.10022 -1.4507,-10.92522 1.34185,-6.63612 6.4706,-11.75064 13.17126,-13.1347 2.52987,-0.52256 4.16121,-0.52248 6.7343,2.7e-4 5.05376,1.02684 9.43008,4.35713 11.62456,8.84605 2.49964,5.11312 2.50009,10.24213 0.001,15.33492 -1.5351,3.12876 -4.32005,5.91296 -7.38909,7.38709 -3.69475,1.77468 -7.39905,2.25776 -11.14696,1.45369 z m 0,-50.8 c -6.55545,-1.40639 -11.67151,-6.57079 -12.99543,-13.1182 -0.77461,-3.83084 -0.30631,-7.34309 1.45906,-10.94287 2.29035,-4.67027 6.48805,-7.88194 11.7122,-8.96102 2.52987,-0.52256 4.16121,-0.52248 6.7343,2.7e-4 5.05376,1.02684 9.43008,4.35713 11.62456,8.84605 2.49964,5.11313 2.50009,10.24213 0.001,15.33492 -1.5351,3.12876 -4.32005,5.91296 -7.38909,7.3871 -3.69475,1.77467 -7.39905,2.25776 -11.14696,1.45369 z m 0,-50.8 c -5.06197,-1.08598 -9.29189,-4.36967 -11.54473,-8.96217 -1.7569,-3.581493 -2.22413,-7.100219 -1.4507,-10.925215 1.34185,-6.63613 6.4706,-11.750646 13.17126,-13.134703 2.52987,-0.522561 4.16121,-0.522481 6.7343,3.3e-4 5.05376,1.026846 9.43008,4.357133 11.62456,8.846049 2.49964,5.113128 2.50009,10.24213 0.001,15.334919 -1.5351,3.12876 -4.32005,5.91296 -7.38909,7.3871 -3.69475,1.77468 -7.39905,2.25776 -11.14696,1.45369 z"
       id="path302"
       inkscape:export-filename="menu.svg"
       inkscape:export-xdpi="96"
       inkscape:export-ydpi="96" /></g></svg>
